/* XPM */
static char * a5_xpm[] = {
"60 60 61 1",
" 	c None",
".	c #000000",
"+	c #020202",
"@	c #050505",
"#	c #060606",
"$	c #030303",
"%	c #040404",
"&	c #010101",
"*	c #111111",
"=	c #3A3A3A",
"-	c #525252",
";	c #555555",
">	c #575757",
",	c #4F4F4F",
"'	c #232323",
")	c #1B1B1B",
"!	c #4A4A4A",
"~	c #565656",
"{	c #3B3B3B",
"]	c #121212",
"^	c #A7A7A7",
"/	c #D7D7D7",
"(	c #DBDBDB",
"_	c #DADADA",
":	c #DCDCDC",
"<	c #DDDDDD",
"[	c #A6A6A6",
"}	c #343434",
"|	c #323232",
"1	c #B8B8B8",
"2	c #DEDEDE",
"3	c #535353",
"4	c #D8D8D8",
"5	c #FFFFFF",
"6	c #B7B7B7",
"7	c #3D3D3D",
"8	c #6C6C6C",
"9	c #E7E7E7",
"0	c #545454",
"a	c #FEFEFE",
"b	c #D0D0D0",
"c	c #676767",
"d	c #1C1C1C",
"e	c #141414",
"f	c #616161",
"g	c #D6D6D6",
"h	c #F6F6F6",
"i	c #B5B5B5",
"j	c #6A6A6A",
"k	c #0C0C0C",
"l	c #0A0A0A",
"m	c #2A2A2A",
"n	c #A5A5A5",
"o	c #F0F0F0",
"p	c #A4A4A4",
"q	c #A0A0A0",
"r	c #ABABAB",
"s	c #C8C8C8",
"t	c #F5F5F5",
"u	c #D9D9D9",
"v	c #A8A8A8",
"............................................................",
"...+@#####################@$...............$%@#########@$&..",
".&*=-;;;;;;;;;;;;;;;;;;;;;>,'..............)!~;;;;;;;;;-{]&.",
".${^/(____________________:<[}.............|12(_______(/[{$.",
".#34555555555555555555555555567%...........895555555555540#.",
".#;_55555555555555555555555a55bcd@&....&&efga5a555555555(~#.",
".#;_555555555555555555555555a55hij{dkl*m~no55a5555555555(~#.",
".#;_5555555555555555555555555aa55a(1pqrst55aa55555555555(~#.",
".#;_5555555555555555555555555555a555555555a5555555555555(~#.",
".#;_5555555555555555555555555555555555555555555555555555(~#.",
".#;_5555555555555555555555555555555555555555555555555555(~#.",
".#;_5555555555555555555555555555555555555555555555555555(~#.",
".#;_5555555555555555555555555555555555555555555555555555(~#.",
".#;_5555555555555555555555555555555555555555555555555555(~#.",
".#;_5555555555555555555555555555555555555555555555555555(~#.",
".#;_5555555555555555555555555555555555555555555555555555(~#.",
".#;_5555555555555555555555555555555555555555555555555555(~#.",
".#;_5555555555555555555555555555555555555555555555555555(~#.",
".#;_5555555555555555555555555555555555555555555555555555(~#.",
".#;_5555555555555555555555555555555555555555555555555555(~#.",
".#;_5555555555555555555555555555555555555555555555555555(~#.",
".#;_5555555555555555555555555555555555555555555555555555(~#.",
".#;_5555555555555555555555555555555555555555555555555555(~#.",
".#;_5555555555555555555555555555555555555555555555555555(~#.",
".#;_5555555555555555555555555555555555555555555555555555(~#.",
".#;_5555555555555555555555555555555555555555555555555555(~#.",
".#;_5555555555555555555555555555555555555555555555555555(~#.",
".#;_5555555555555555555555555555555555555555555555555555(~#.",
".#;_5555555555555555555555555555555555555555555555555555(~#.",
".#;_5555555555555555555555555555555555555555555555555555(~#.",
".#;_5555555555555555555555555555555555555555555555555555(~#.",
".#;_5555555555555555555555555555555555555555555555555555(~#.",
".#;_5555555555555555555555555555555555555555555555555555(~#.",
".#;_5555555555555555555555555555555555555555555555555555(~#.",
".#;_5555555555555555555555555555555555555555555555555555(~#.",
".#;_5555555555555555555555555555555555555555555555555555(~#.",
".#;_5555555555555555555555555555555555555555555555555555(~#.",
".#;_5555555555555555555555555555555555555555555555555555(~#.",
".#;_5555555555555555555555555555555555555555555555555555(~#.",
".#;_5555555555555555555555555555555555555555555555555555(~#.",
".#;_5555555555555555555555555555555555555555555555555555(~#.",
".#;_5555555555555555555555555555555555555555555555555555(~#.",
".#;_5555555555555555555555555555555555555555555555555555(~#.",
".#;_5555555555555555555555555555555555555555555555555555(~#.",
".#;_5555555555555555555555555555555555555555555555555555(~#.",
".#;_5555555555555555555555555555555555555555555555555555(~#.",
".#;_5555555555555555555555555555555555555555555555555555(~#.",
".#;_5555555555555555555555555555555555555555555555555555(~#.",
".#;_5555555555555555555555555555555555555555555555555555(~#.",
".#;_5555555555555555555555555555555555555555555555555555(~#.",
".#;_5555555555555555555555555555555555555555555555555555(~#.",
".#;_5555555555555555555555555555555555555555555555555555(~#.",
".#;_5555555555555555555555555555555555555555555555555555(~#.",
".#;_5555555555555555555555555555555555555555555555555555(~#.",
".#;_5555555555555555555555555555555555555555555555555555(~#.",
".#3u555555555555555555555555555555555555555555555555555540#.",
".${v4((((((((((((((((((((((((((((((((((((((((((((((((((4^{$.",
".&]{0>~~~~~~~~~~~~~~~~~~~~~~~~~~~~~~~~~~~~~~~~~~~~~~~~>0{]&.",
"..&$####################################################$&..",
"............................................................"};
